<svg width="304" height="57" viewBox="0 0 304 57" fill="none" xmlns="http://www.w3.org/2000/svg">
<path d="M6.576 42.48C5.04 42.48 3.824 42.016 2.928 41.088C2.032 40.16 1.584 39.008 1.584 37.632C1.584 36.256 2.032 35.104 2.928 34.176C3.824 33.248 5.04 32.784 6.576 32.784C8.112 32.784 9.328 33.248 10.224 34.176C11.152 35.104 11.616 36.256 11.616 37.632C11.616 39.008 11.152 40.16 10.224 41.088C9.328 42.016 8.112 42.48 6.576 42.48Z" fill="#A8D0E6"/>
<path d="M12.9308 42V6.48H20.2748V17.568L20.0348 21.312C21.7948 18.56 24.4188 17.184 27.9068 17.184C30.0828 17.184 31.9388 17.68 33.4748 18.672C35.0108 19.664 36.1788 21.04 36.9788 22.8C37.7788 24.56 38.1788 26.576 38.1788 28.848C38.1788 31.568 37.6188 33.952 36.4988 36C35.3788 38.048 33.8748 39.648 31.9868 40.8C30.0988 41.92 27.9868 42.48 25.6508 42.48C24.0828 42.48 22.7068 42.176 21.5228 41.568C20.3708 40.928 19.4748 40.096 18.8348 39.072L18.1628 42H12.9308ZM24.8828 36.096C26.6428 36.096 28.0348 35.44 29.0588 34.128C30.0828 32.784 30.5948 31.088 30.5948 29.04C30.5948 27.312 30.1948 25.968 29.3948 25.008C28.6268 24.048 27.5708 23.568 26.2268 23.568C24.5948 23.568 23.1868 24.24 22.0028 25.584C20.8508 26.928 20.2748 28.688 20.2748 30.864C20.2748 32.464 20.6908 33.744 21.5228 34.704C22.3548 35.632 23.4748 36.096 24.8828 36.096ZM47.5466 42.48C44.7306 42.48 42.6026 41.52 41.1626 39.6C39.7226 37.68 39.0186 35.008 39.0506 31.584L39.1466 17.568H46.4906L46.3946 31.008C46.3946 32.448 46.6506 33.584 47.1626 34.416C47.6746 35.248 48.4746 35.664 49.5626 35.664C50.4906 35.664 51.3386 35.376 52.1066 34.8C52.8746 34.224 53.5466 33.264 54.1226 31.92C54.6986 30.576 55.1466 28.736 55.4666 26.4C55.8186 24.064 56.0106 21.12 56.0426 17.568H63.1466V42H55.8026L56.1386 37.296C55.1786 38.96 53.9626 40.24 52.4906 41.136C51.0186 42.032 49.3706 42.48 47.5466 42.48ZM65.6595 42V6.48H73.0035V17.568L72.7635 21.312C74.5235 18.56 77.1475 17.184 80.6355 17.184C82.8115 17.184 84.6675 17.68 86.2035 18.672C87.7395 19.664 88.9075 21.04 89.7075 22.8C90.5075 24.56 90.9075 26.576 90.9075 28.848C90.9075 31.568 90.3475 33.952 89.2275 36C88.1075 38.048 86.6035 39.648 84.7155 40.8C82.8275 41.92 80.7155 42.48 78.3795 42.48C76.8115 42.48 75.4355 42.176 74.2515 41.568C73.0995 40.928 72.2035 40.096 71.5635 39.072L70.8915 42H65.6595ZM77.6115 36.096C79.3715 36.096 80.7635 35.44 81.7875 34.128C82.8115 32.784 83.3235 31.088 83.3235 29.04C83.3235 27.312 82.9235 25.968 82.1235 25.008C81.3555 24.048 80.2995 23.568 78.9555 23.568C77.3235 23.568 75.9155 24.24 74.7315 25.584C73.5795 26.928 73.0035 28.688 73.0035 30.864C73.0035 32.464 73.4195 33.744 74.2515 34.704C75.0835 35.632 76.2035 36.096 77.6115 36.096ZM92.2114 42V6.48H99.5554V17.568L99.3154 21.312C101.075 18.56 103.699 17.184 107.187 17.184C109.363 17.184 111.219 17.68 112.755 18.672C114.291 19.664 115.459 21.04 116.259 22.8C117.059 24.56 117.459 26.576 117.459 28.848C117.459 31.568 116.899 33.952 115.779 36C114.659 38.048 113.155 39.648 111.267 40.8C109.379 41.92 107.267 42.48 104.931 42.48C103.363 42.48 101.987 42.176 100.803 41.568C99.6514 40.928 98.7554 40.096 98.1154 39.072L97.4434 42H92.2114ZM104.163 36.096C105.923 36.096 107.315 35.44 108.339 34.128C109.363 32.784 109.875 31.088 109.875 29.04C109.875 27.312 109.475 25.968 108.675 25.008C107.907 24.048 106.851 23.568 105.507 23.568C103.875 23.568 102.467 24.24 101.283 25.584C100.131 26.928 99.5554 28.688 99.5554 30.864C99.5554 32.464 99.9714 33.744 100.803 34.704C101.635 35.632 102.755 36.096 104.163 36.096ZM126.443 42.48C123.979 42.48 122.075 41.808 120.731 40.464C119.419 39.088 118.763 37.104 118.763 34.512V6.48H126.107V33.984C126.107 35.456 126.795 36.192 128.171 36.192C128.907 36.192 129.531 36.016 130.043 35.664L131.819 40.896C131.275 41.344 130.523 41.712 129.563 42C128.603 42.32 127.563 42.48 126.443 42.48ZM142.269 42.48C139.549 42.48 137.197 41.984 135.213 40.992C133.229 39.968 131.693 38.544 130.605 36.72C129.517 34.864 128.973 32.672 128.973 30.144C128.973 27.584 129.517 25.328 130.605 23.376C131.725 21.424 133.213 19.904 135.069 18.816C136.957 17.728 139.085 17.184 141.453 17.184C144.141 17.184 146.333 17.792 148.029 19.008C149.725 20.224 150.893 21.952 151.533 24.192C152.205 26.4 152.349 28.976 151.965 31.92H136.461C136.653 33.136 137.293 34.16 138.381 34.992C139.469 35.792 140.957 36.192 142.845 36.192C143.709 36.192 144.621 36.016 145.581 35.664C146.541 35.28 147.357 34.72 148.029 33.984L152.109 38.304C151.053 39.584 149.741 40.608 148.173 41.376C146.637 42.112 144.669 42.48 142.269 42.48ZM141.597 22.512C140.317 22.512 139.229 22.896 138.333 23.664C137.469 24.432 136.893 25.504 136.605 26.88H145.773C145.805 25.376 145.437 24.272 144.669 23.568C143.933 22.864 142.909 22.512 141.597 22.512ZM171.301 42.48C167.749 42.48 165.061 41.824 163.237 40.512C161.413 39.168 160.341 37.408 160.021 35.232L166.117 33.696C166.309 34.624 166.837 35.376 167.701 35.952C168.565 36.496 169.749 36.768 171.253 36.768C173.653 36.768 174.853 36.208 174.853 35.088C174.853 34.512 174.501 34.08 173.797 33.792C173.125 33.472 172.021 33.168 170.485 32.88C167.605 32.368 165.365 31.552 163.765 30.432C162.197 29.312 161.413 27.6 161.413 25.296C161.413 23.728 161.861 22.336 162.757 21.12C163.653 19.904 164.885 18.944 166.453 18.24C168.021 17.536 169.829 17.184 171.877 17.184C174.533 17.184 176.725 17.808 178.453 19.056C180.213 20.304 181.253 21.84 181.573 23.664L175.573 25.296C175.349 24.592 174.901 24.016 174.229 23.568C173.589 23.12 172.709 22.896 171.589 22.896C170.533 22.896 169.749 23.072 169.237 23.424C168.757 23.776 168.517 24.192 168.517 24.672C168.517 25.248 168.853 25.712 169.525 26.064C170.197 26.384 171.381 26.72 173.077 27.072C174.805 27.392 176.325 27.84 177.637 28.416C178.981 28.96 180.021 29.728 180.757 30.72C181.525 31.68 181.909 32.992 181.909 34.656C181.909 36.224 181.445 37.6 180.517 38.784C179.621 39.968 178.373 40.88 176.773 41.52C175.173 42.16 173.349 42.48 171.301 42.48ZM193.025 42.48C190.017 42.48 187.633 41.648 185.873 39.984C184.113 38.288 183.249 36.064 183.281 33.312L183.473 23.664H179.441V17.568H183.569L183.617 12.576H190.913L190.865 17.568H198.497V23.664H190.769L190.625 32.496C190.625 33.648 190.929 34.544 191.537 35.184C192.145 35.824 193.057 36.144 194.273 36.144C194.977 36.144 195.649 36.064 196.289 35.904C196.961 35.712 197.649 35.36 198.353 34.848L200.465 40.464C198.833 41.808 196.353 42.48 193.025 42.48ZM207.274 42.48C204.458 42.48 202.33 41.52 200.89 39.6C199.45 37.68 198.746 35.008 198.778 31.584L198.874 17.568H206.218L206.122 31.008C206.122 32.448 206.378 33.584 206.89 34.416C207.402 35.248 208.202 35.664 209.29 35.664C210.218 35.664 211.066 35.376 211.834 34.8C212.602 34.224 213.274 33.264 213.85 31.92C214.426 30.576 214.874 28.736 215.194 26.4C215.546 24.064 215.738 21.12 215.77 17.568H222.874V42H215.53L215.866 37.296C214.906 38.96 213.69 40.24 212.218 41.136C210.746 42.032 209.098 42.48 207.274 42.48ZM249.387 6.48V42H241.995L242.235 38.4C240.475 41.12 237.867 42.48 234.411 42.48C232.235 42.48 230.379 41.984 228.843 40.992C227.307 40 226.139 38.624 225.339 36.864C224.539 35.104 224.139 33.088 224.139 30.816C224.139 28.096 224.699 25.712 225.819 23.664C226.939 21.616 228.443 20.032 230.331 18.912C232.219 17.76 234.331 17.184 236.667 17.184C237.755 17.184 238.763 17.344 239.691 17.664C240.619 17.984 241.419 18.432 242.091 19.008L242.043 17.568V6.48H249.387ZM237.387 23.568C235.627 23.568 234.235 24.224 233.211 25.536C232.219 26.848 231.723 28.528 231.723 30.576C231.723 32.336 232.107 33.696 232.875 34.656C233.675 35.616 234.747 36.096 236.091 36.096C237.723 36.096 239.115 35.424 240.267 34.08C241.451 32.736 242.043 30.976 242.043 28.8C242.043 27.168 241.627 25.888 240.795 24.96C239.963 24.032 238.827 23.568 237.387 23.568ZM259.283 17.568V42H251.939V17.568H259.283ZM255.587 14.688C254.179 14.688 253.059 14.256 252.227 13.392C251.395 12.528 250.979 11.504 250.979 10.32C250.979 9.136 251.379 8.112 252.179 7.248C253.011 6.384 254.147 5.952 255.587 5.952C256.995 5.952 258.115 6.384 258.947 7.248C259.779 8.112 260.195 9.136 260.195 10.32C260.195 11.504 259.779 12.528 258.947 13.392C258.115 14.256 256.995 14.688 255.587 14.688ZM273.708 17.184C277.516 17.184 280.492 18.272 282.636 20.448C284.812 22.624 285.9 25.568 285.9 29.28C285.9 31.808 285.356 34.064 284.268 36.048C283.18 38.032 281.644 39.6 279.66 40.752C277.676 41.904 275.34 42.48 272.652 42.48C268.876 42.48 265.9 41.392 263.724 39.216C261.58 37.04 260.508 34.112 260.508 30.432C260.508 27.872 261.052 25.6 262.14 23.616C263.228 21.632 264.764 20.064 266.748 18.912C268.732 17.76 271.052 17.184 273.708 17.184ZM272.988 36.096C274.62 36.096 275.916 35.488 276.876 34.272C277.868 33.024 278.364 31.36 278.364 29.28C278.364 27.488 277.932 26.096 277.068 25.104C276.204 24.08 275.02 23.568 273.516 23.568C271.852 23.568 270.524 24.192 269.532 25.44C268.572 26.656 268.092 28.304 268.092 30.384C268.092 32.176 268.508 33.584 269.34 34.608C270.204 35.6 271.42 36.096 272.988 36.096Z" fill="#485586"/>
<path d="M290.974 42.48C289.438 42.48 288.222 42.016 287.326 41.088C286.43 40.16 285.982 39.008 285.982 37.632C285.982 36.256 286.43 35.104 287.326 34.176C288.222 33.248 289.438 32.784 290.974 32.784C292.51 32.784 293.726 33.248 294.622 34.176C295.55 35.104 296.014 36.256 296.014 37.632C296.014 39.008 295.55 40.16 294.622 41.088C293.726 42.016 292.51 42.48 290.974 42.48Z" fill="#FC8282"/>
<ellipse cx="255.701" cy="10" rx="5.15253" ry="6" fill="#F3E5A2"/>
</svg>
