<svg width="200" height="117" viewBox="0 0 200 117" fill="none" xmlns="http://www.w3.org/2000/svg">
<path d="M12.8548 42.48C11.3188 42.48 10.1028 42.016 9.20677 41.088C8.31077 40.16 7.86277 39.008 7.86277 37.632C7.86277 36.256 8.31077 35.104 9.20677 34.176C10.1028 33.248 11.3188 32.784 12.8548 32.784C14.3908 32.784 15.6068 33.248 16.5028 34.176C17.4308 35.104 17.8948 36.256 17.8948 37.632C17.8948 39.008 17.4308 40.16 16.5028 41.088C15.6068 42.016 14.3908 42.48 12.8548 42.48Z" fill="#A8D0E6"/>
<path d="M19.2095 42V6.48H26.5535V17.568L26.3135 21.312C28.0735 18.56 30.6975 17.184 34.1855 17.184C36.3615 17.184 38.2175 17.68 39.7535 18.672C41.2895 19.664 42.4575 21.04 43.2575 22.8C44.0575 24.56 44.4575 26.576 44.4575 28.848C44.4575 31.568 43.8975 33.952 42.7775 36C41.6575 38.048 40.1535 39.648 38.2655 40.8C36.3775 41.92 34.2655 42.48 31.9295 42.48C30.3615 42.48 28.9855 42.176 27.8015 41.568C26.6495 40.928 25.7535 40.096 25.1135 39.072L24.4415 42H19.2095ZM31.1615 36.096C32.9215 36.096 34.3135 35.44 35.3375 34.128C36.3615 32.784 36.8735 31.088 36.8735 29.04C36.8735 27.312 36.4735 25.968 35.6735 25.008C34.9055 24.048 33.8495 23.568 32.5055 23.568C30.8735 23.568 29.4655 24.24 28.2815 25.584C27.1295 26.928 26.5535 28.688 26.5535 30.864C26.5535 32.464 26.9695 33.744 27.8015 34.704C28.6335 35.632 29.7535 36.096 31.1615 36.096ZM53.8254 42.48C51.0094 42.48 48.8814 41.52 47.4414 39.6C46.0014 37.68 45.2974 35.008 45.3294 31.584L45.4254 17.568H52.7694L52.6734 31.008C52.6734 32.448 52.9294 33.584 53.4414 34.416C53.9534 35.248 54.7534 35.664 55.8414 35.664C56.7694 35.664 57.6174 35.376 58.3854 34.8C59.1534 34.224 59.8254 33.264 60.4014 31.92C60.9774 30.576 61.4254 28.736 61.7454 26.4C62.0974 24.064 62.2894 21.12 62.3214 17.568H69.4254V42H62.0814L62.4174 37.296C61.4574 38.96 60.2414 40.24 58.7694 41.136C57.2974 42.032 55.6494 42.48 53.8254 42.48ZM71.9383 42V6.48H79.2823V17.568L79.0423 21.312C80.8023 18.56 83.4263 17.184 86.9143 17.184C89.0903 17.184 90.9463 17.68 92.4823 18.672C94.0183 19.664 95.1863 21.04 95.9863 22.8C96.7863 24.56 97.1863 26.576 97.1863 28.848C97.1863 31.568 96.6263 33.952 95.5063 36C94.3863 38.048 92.8823 39.648 90.9943 40.8C89.1063 41.92 86.9943 42.48 84.6583 42.48C83.0903 42.48 81.7143 42.176 80.5303 41.568C79.3783 40.928 78.4823 40.096 77.8423 39.072L77.1703 42H71.9383ZM83.8903 36.096C85.6503 36.096 87.0423 35.44 88.0663 34.128C89.0903 32.784 89.6023 31.088 89.6023 29.04C89.6023 27.312 89.2023 25.968 88.4023 25.008C87.6343 24.048 86.5783 23.568 85.2343 23.568C83.6023 23.568 82.1943 24.24 81.0103 25.584C79.8583 26.928 79.2823 28.688 79.2823 30.864C79.2823 32.464 79.6983 33.744 80.5303 34.704C81.3623 35.632 82.4823 36.096 83.8903 36.096ZM98.4901 42V6.48H105.834V17.568L105.594 21.312C107.354 18.56 109.978 17.184 113.466 17.184C115.642 17.184 117.498 17.68 119.034 18.672C120.57 19.664 121.738 21.04 122.538 22.8C123.338 24.56 123.738 26.576 123.738 28.848C123.738 31.568 123.178 33.952 122.058 36C120.938 38.048 119.434 39.648 117.546 40.8C115.658 41.92 113.546 42.48 111.21 42.48C109.642 42.48 108.266 42.176 107.082 41.568C105.93 40.928 105.034 40.096 104.394 39.072L103.722 42H98.4901ZM110.442 36.096C112.202 36.096 113.594 35.44 114.618 34.128C115.642 32.784 116.154 31.088 116.154 29.04C116.154 27.312 115.754 25.968 114.954 25.008C114.186 24.048 113.13 23.568 111.786 23.568C110.154 23.568 108.746 24.24 107.562 25.584C106.41 26.928 105.834 28.688 105.834 30.864C105.834 32.464 106.25 33.744 107.082 34.704C107.914 35.632 109.034 36.096 110.442 36.096ZM132.722 42.48C130.258 42.48 128.354 41.808 127.01 40.464C125.698 39.088 125.042 37.104 125.042 34.512V6.48H132.386V33.984C132.386 35.456 133.074 36.192 134.45 36.192C135.186 36.192 135.81 36.016 136.322 35.664L138.098 40.896C137.554 41.344 136.802 41.712 135.842 42C134.882 42.32 133.842 42.48 132.722 42.48ZM148.548 42.48C145.828 42.48 143.476 41.984 141.492 40.992C139.508 39.968 137.972 38.544 136.884 36.72C135.796 34.864 135.252 32.672 135.252 30.144C135.252 27.584 135.796 25.328 136.884 23.376C138.004 21.424 139.492 19.904 141.348 18.816C143.236 17.728 145.364 17.184 147.732 17.184C150.42 17.184 152.612 17.792 154.308 19.008C156.004 20.224 157.172 21.952 157.812 24.192C158.484 26.4 158.628 28.976 158.244 31.92H142.74C142.932 33.136 143.572 34.16 144.66 34.992C145.748 35.792 147.236 36.192 149.124 36.192C149.988 36.192 150.9 36.016 151.86 35.664C152.82 35.28 153.636 34.72 154.308 33.984L158.388 38.304C157.332 39.584 156.02 40.608 154.452 41.376C152.916 42.112 150.948 42.48 148.548 42.48ZM147.876 22.512C146.596 22.512 145.508 22.896 144.612 23.664C143.748 24.432 143.172 25.504 142.884 26.88H152.052C152.084 25.376 151.716 24.272 150.948 23.568C150.212 22.864 149.188 22.512 147.876 22.512Z" fill="white"/>
<path d="M50.9513 85.5569C47.3993 85.5569 44.7113 84.9009 42.8873 83.5889C41.0633 82.2449 39.9913 80.4849 39.6713 78.3089L45.7673 76.7729C45.9593 77.7009 46.4873 78.4529 47.3513 79.0289C48.2153 79.5729 49.3993 79.8449 50.9033 79.8449C53.3033 79.8449 54.5033 79.2849 54.5033 78.1649C54.5033 77.5889 54.1513 77.1569 53.4473 76.8689C52.7753 76.5489 51.6713 76.2449 50.1353 75.9569C47.2553 75.4449 45.0153 74.6289 43.4153 73.5089C41.8473 72.3889 41.0633 70.6769 41.0633 68.3729C41.0633 66.8049 41.5113 65.4129 42.4073 64.1969C43.3033 62.9809 44.5353 62.0209 46.1033 61.3169C47.6713 60.6129 49.4793 60.2609 51.5273 60.2609C54.1833 60.2609 56.3753 60.8849 58.1033 62.1329C59.8633 63.3809 60.9033 64.9169 61.2233 66.7409L55.2233 68.3729C54.9993 67.6689 54.5513 67.0929 53.8793 66.6449C53.2393 66.1969 52.3593 65.9729 51.2393 65.9729C50.1833 65.9729 49.3993 66.1489 48.8873 66.5009C48.4073 66.8529 48.1673 67.2689 48.1673 67.7489C48.1673 68.3249 48.5033 68.7889 49.1753 69.1409C49.8473 69.4609 51.0313 69.7969 52.7273 70.1489C54.4553 70.4689 55.9753 70.9169 57.2873 71.4929C58.6313 72.0369 59.6713 72.8049 60.4073 73.7969C61.1753 74.7569 61.5593 76.0689 61.5593 77.7329C61.5593 79.3009 61.0953 80.6769 60.1673 81.8609C59.2713 83.0449 58.0233 83.9569 56.4233 84.5969C54.8233 85.2369 52.9993 85.5569 50.9513 85.5569ZM72.6754 85.5569C69.6674 85.5569 67.2834 84.7249 65.5234 83.0609C63.7634 81.3649 62.8994 79.1409 62.9314 76.3889L63.1234 66.7409H59.0914V60.6449H63.2194L63.2674 55.6529H70.5634L70.5154 60.6449H78.1474V66.7409H70.4194L70.2754 75.5729C70.2754 76.7249 70.5794 77.6209 71.1874 78.2609C71.7954 78.9009 72.7074 79.2209 73.9234 79.2209C74.6274 79.2209 75.2994 79.1409 75.9394 78.9809C76.6114 78.7889 77.2994 78.4369 78.0034 77.9249L80.1154 83.5409C78.4834 84.8849 76.0034 85.5569 72.6754 85.5569ZM86.9243 85.5569C84.1083 85.5569 81.9803 84.5969 80.5403 82.6769C79.1003 80.7569 78.3963 78.0849 78.4283 74.6609L78.5243 60.6449H85.8683L85.7723 74.0849C85.7723 75.5249 86.0283 76.6609 86.5403 77.4929C87.0523 78.3249 87.8523 78.7409 88.9403 78.7409C89.8683 78.7409 90.7163 78.4529 91.4843 77.8769C92.2523 77.3009 92.9243 76.3409 93.5003 74.9969C94.0763 73.6529 94.5243 71.8129 94.8443 69.4769C95.1963 67.1409 95.3883 64.1969 95.4203 60.6449H102.524V85.0769H95.1803L95.5163 80.3729C94.5563 82.0369 93.3403 83.3169 91.8683 84.2129C90.3963 85.1089 88.7483 85.5569 86.9243 85.5569ZM129.037 49.5569V85.0769H121.645L121.885 81.4769C120.125 84.1969 117.517 85.5569 114.061 85.5569C111.885 85.5569 110.029 85.0609 108.493 84.0689C106.957 83.0769 105.789 81.7009 104.989 79.9409C104.189 78.1809 103.789 76.1649 103.789 73.8929C103.789 71.1729 104.349 68.7889 105.469 66.7409C106.589 64.6929 108.093 63.1089 109.981 61.9889C111.869 60.8369 113.981 60.2609 116.317 60.2609C117.405 60.2609 118.413 60.4209 119.341 60.7409C120.269 61.0609 121.069 61.5089 121.741 62.0849L121.693 60.6449V49.5569H129.037ZM117.037 66.6449C115.277 66.6449 113.885 67.3009 112.861 68.6129C111.869 69.9249 111.373 71.6049 111.373 73.6529C111.373 75.4129 111.757 76.7729 112.525 77.7329C113.325 78.6929 114.397 79.1729 115.741 79.1729C117.373 79.1729 118.765 78.5009 119.917 77.1569C121.101 75.8129 121.693 74.0529 121.693 71.8769C121.693 70.2449 121.277 68.9649 120.445 68.0369C119.613 67.1089 118.477 66.6449 117.037 66.6449ZM138.933 60.6449V85.0769H131.589V60.6449H138.933ZM135.237 57.7649C133.829 57.7649 132.709 57.3329 131.877 56.4689C131.045 55.6049 130.629 54.5809 130.629 53.3969C130.629 52.2129 131.029 51.1889 131.829 50.3249C132.661 49.4609 133.797 49.0289 135.237 49.0289C136.645 49.0289 137.765 49.4609 138.597 50.3249C139.429 51.1889 139.845 52.2129 139.845 53.3969C139.845 54.5809 139.429 55.6049 138.597 56.4689C137.765 57.3329 136.645 57.7649 135.237 57.7649ZM153.359 60.2609C157.167 60.2609 160.143 61.3489 162.287 63.5249C164.463 65.7009 165.551 68.6449 165.551 72.3569C165.551 74.8849 165.007 77.1409 163.919 79.1249C162.831 81.1089 161.295 82.6769 159.311 83.8289C157.327 84.9809 154.991 85.5569 152.303 85.5569C148.527 85.5569 145.551 84.4689 143.375 82.2929C141.231 80.1169 140.159 77.1889 140.159 73.5089C140.159 70.9489 140.703 68.6769 141.791 66.6929C142.879 64.7089 144.415 63.1409 146.399 61.9889C148.383 60.8369 150.703 60.2609 153.359 60.2609ZM152.639 79.1729C154.271 79.1729 155.567 78.5649 156.527 77.3489C157.519 76.1009 158.015 74.4369 158.015 72.3569C158.015 70.5649 157.583 69.1729 156.719 68.1809C155.855 67.1569 154.671 66.6449 153.167 66.6449C151.503 66.6449 150.175 67.2689 149.183 68.5169C148.223 69.7329 147.743 71.3809 147.743 73.4609C147.743 75.2529 148.159 76.6609 148.991 77.6849C149.855 78.6769 151.071 79.1729 152.639 79.1729Z" fill="white"/>
<path d="M170.624 85.5569C169.088 85.5569 167.872 85.0929 166.976 84.1649C166.08 83.2369 165.632 82.0849 165.632 80.7089C165.632 79.3329 166.08 78.1809 166.976 77.2529C167.872 76.3249 169.088 75.8609 170.624 75.8609C172.16 75.8609 173.376 76.3249 174.272 77.2529C175.2 78.1809 175.664 79.3329 175.664 80.7089C175.664 82.0849 175.2 83.2369 174.272 84.1649C173.376 85.0929 172.16 85.5569 170.624 85.5569Z" fill="#FC8282"/>
<ellipse cx="136.41" cy="53.3333" rx="6.15385" ry="6.15384" fill="#F3E5A2"/>
</svg>
